<svg version="1" xmlns="http://www.w3.org/2000/svg" width="682.667" height="682.667" viewBox="0 0 512.000000 512.000000"><path d="M0 256v256h512V0H0v256zm387.7-60.8c-.3 149.6-.4 163.1-2.1 172.7-5.8 34.4-15.9 56.2-35.1 75.7-23.8 24.2-51.7 34.5-93 34.5-65.1 0-105.3-28.2-124.9-87.6-3.5-10.9-7.6-27-7.6-30.3 0-1.5 4-2.4 29.5-6.6 16.2-2.7 29.7-4.7 30-4.5.2.3 1.4 5 2.5 10.4 7.6 35.3 27.5 60.1 54 67 8.5 2.3 26 2.3 35.4.1 17.5-4.1 30.9-15.1 39-31.7 5-10.5 6.9-17.2 9.1-31.6 1.3-8.3 1.5-31 1.5-144.6V84H225V33h163.1l-.4 162.2z"/></svg>